<?xml version="1.0" encoding="UTF-8" standalone="no"?>
<!-- Created with Inkscape (http://www.inkscape.org/) -->

<svg
   width="720"
   height="620"
   viewBox="0 0 190.5 164.04167"
   version="1.1"
   id="svg1"
   inkscape:version="1.3.1 (9b9bdc1480, 2023-11-25, custom)"
   sodipodi:docname="logo_fafiala_sans_texte.svg"
   xmlns:inkscape="http://www.inkscape.org/namespaces/inkscape"
   xmlns:sodipodi="http://sodipodi.sourceforge.net/DTD/sodipodi-0.dtd"
   xmlns="http://www.w3.org/2000/svg"
   xmlns:svg="http://www.w3.org/2000/svg">
  <sodipodi:namedview
     id="namedview1"
     pagecolor="#ffffff"
     bordercolor="#000000"
     borderopacity="0.25"
     inkscape:showpageshadow="2"
     inkscape:pageopacity="0.0"
     inkscape:pagecheckerboard="0"
     inkscape:deskcolor="#d1d1d1"
     inkscape:document-units="mm"
     inkscape:zoom="0.8979798"
     inkscape:cx="356.35546"
     inkscape:cy="449.89876"
     inkscape:window-width="1320"
     inkscape:window-height="704"
     inkscape:window-x="46"
     inkscape:window-y="27"
     inkscape:window-maximized="1"
     inkscape:current-layer="layer1" />
  <defs
     id="defs1" />
  <g
     inkscape:label="Calque 1"
     inkscape:groupmode="layer"
     id="layer1">
    <path
       style="display:inline;fill:#8eca78;fill-opacity:1;stroke:none;stroke-width:0.283821;stroke-opacity:1"
       d="m 56.249855,103.85596 0.492956,-17.984473 c 0.05627,-2.053044 4.575054,-0.443782 7.239832,-1.375258 0,0 3.134887,-1.522731 4.509893,-2.738322 1.812515,-1.602375 0.0306,-3.424913 5.017343,-6.362378 4.98674,-2.937465 7.829541,-0.8101 7.829541,-0.8101 0,0 31.52166,-39.760927 45.50783,-38.368449 26.48447,2.636821 58.59013,41.097873 58.59013,41.097873 l -1.03398,15.018861 -17.98082,-0.46027 c 0,0 -27.87166,-2.39032 -42.08438,0.54824 -11.62643,2.40384 -19.75021,3.98975 -29.797099,12.065816 -1.180973,0.94931 -6.092274,6.35855 -4.67272,5.82869 0,0 23.586129,-11.810256 36.421259,-13.594626 19.17701,-2.66601 57.89398,4.698066 57.89398,4.698066 l 0.6194,11.84617 c 0,0 -32.93237,-5.13651 -49.43714,-4.11851 -16.24953,1.00225 -31.61154,8.32902 -47.805411,10.00551 -9.980001,1.03321 -29.348259,0.48499 -29.348259,0.48499 l 0.166902,-13.74342 c 0.02078,-1.71144 -2.129257,-2.03841 -2.129257,-2.03841 z"
       id="path3"
       sodipodi:nodetypes="csssscscccssssccsscsc" />
    <path
       style="display:inline;fill:#1a9035;fill-opacity:1;stroke-width:0.283821"
       d="M 8.2343957,44.223653 C 10.892522,37.68541 10.470305,28.715912 23.158903,25.365854 c 12.688597,-3.350059 -0.04605,0.02659 -0.04605,0.02659 4.064898,-8.693441 10.974602,-16.7382661 20.969056,-16.8144121 3.503315,0.266481 4.138271,-1.80668 5.124853,-2.635943 1.472605,-1.237786 2.858482,-1.745231 4.657256,-1.063258 1.690626,0.640972 1.544314,3.438413 2.746908,4.677181 4.033272,4.1545941 11.238709,0.9397941 15.097443,3.3836481 5.255243,3.328306 4.5553,14.212611 4.5553,14.212611 0,0 7.538478,0.689595 9.24365,3.510104 1.237943,2.047672 2.466501,4.514471 3.104504,6.742761 1.304658,4.556645 6.666741,0.741085 8.846006,9.484147 1.21003,4.85451 -2.0011,9.865031 -6.247878,11.985549 -1.602444,0.800134 -3.086281,-0.719996 -6.14463,1.474461 -3.20927,2.302754 -0.794576,4.892479 -3.118448,6.846913 -3.944519,3.31743 -11.817441,3.105173 -14.092988,5.662255 -2.075102,2.331835 1.705929,4.866143 -0.409616,7.161363 -3.064661,3.32493 -11.460029,4.72742 -11.460029,4.72742 l 0.01663,5.08102 -0.100706,2.5209 -0.246289,11.502246 c 0,0 2.482422,1.38856 2.482422,2.57572 0,1.18718 -0.227412,17.15844 -0.227412,17.15844 0,0 20.665994,1.50387 30.852978,0.0919 7.966922,-1.10426 15.460057,-5.52477 23.199967,-6.63194 7.34382,-1.0505 21.6013,-0.93567 21.6013,-0.93567 0,0 22.70841,-0.88414 33.99431,0.13168 2.93179,0.26388 8.33754,2.89128 12.3077,3.75195 3.97015,0.86067 6.50469,-0.0454 6.50469,-0.0454 l 0.04,11.05782 -148.720473,-0.51554 0.04376,-46.775416 c 0.0018,-1.93487 -8.183442,-0.13652 -11.672684,-2.3023 -1.720011,-1.06762 -4.735915,-1.94172 -5.425903,-4.31411 -0.339451,-1.16713 0.398749,-3.49476 -0.659261,-5.007527 C 17.494778,68.544411 12.223436,69.169962 8.7068887,64.039749 6.6634096,61.058571 8.4408157,58.33618 7.3630937,54.703558 6.6854958,52.419608 3.5184915,52.786982 2.8767681,50.944551 2.5663711,50.05338 2.7825901,48.841135 3.4476876,48.171675 c 0.8658292,-0.871508 2.2148435,-0.770005 3.259525,-1.4164 0.8363471,-0.517489 1.1567821,-1.620539 1.5271831,-2.531622 z"
       id="path1"
       sodipodi:nodetypes="sscssssscssssssssccccscsscsscccssssssssss" />
    <path
       style="display:inline;fill:#af6146;fill-opacity:1;stroke:none;stroke-width:0.283821;stroke-opacity:1"
       d="m 138.62718,116.38248 c 0,0 -0.99796,-29.737766 7.06343,-31.991276 8.06138,-2.25352 -0.13438,0.036 -0.13438,0.036 0,0 5.31591,-0.46782 5.2574,-1.97875 -0.0585,-1.51093 -1.37322,-2.61358 -1.37322,-2.61358 -0.40562,-1.26514 -0.5205,-3.993578 -0.5205,-3.993578 l -3.44649,0.100942 0.11175,-1.093552 3.31497,-0.393749 c 0,0 0.82105,-4.14274 2.22185,-4.119044 l 4.62703,0.07831 c 1.07931,0.01824 0.76703,3.621435 1.84582,3.659399 l 4.38269,0.606327 -0.23996,0.914099 -3.96867,-0.160434 0.0129,3.60973 c 0.003,0.84124 -1.65073,1.62838 -1.65073,1.62838 0,0 -0.30812,1.5535 0.22794,1.89796 1.20297,0.773 3.49335,2.86062 4.15597,1.54017 L 167.3411,70.50696 c 0,0 2.10893,-1.567336 2.89274,-1.044262 0.78382,0.523075 0.0635,2.745032 0.0635,2.745032 l -6.76347,13.571094 c 0,0 2.60593,1.43042 2.60233,2.37459 l -0.1101,28.884796 c 0,0 -0.3647,1.70903 -0.94436,2.17126 -0.57965,0.46224 -2.39434,0.91239 -2.39434,0.91239 l -0.12318,8.93047 c -0.005,0.36323 -0.33732,0.77802 -0.63318,0.98039 -0.29585,0.20239 -1.19448,0.62959 -1.19448,0.62959 l -0.003,1.29315 0.37512,6.75811 c 0.0503,0.90698 -1.58087,1.70737 -1.58087,1.70737 l -0.25471,5.485 c -0.0319,0.68499 -2.26445,0.92153 -2.26445,0.92153 l -3.11034,1.5157 0.0385,5.72383 0.0764,4.71862 c 0.0134,0.82672 -1.09591,1.9532 -1.92228,1.92614 l -4.38203,-0.14351 c -1.31073,-0.0429 -1.51701,-2.24039 -1.51701,-2.24039 l -0.0629,-7.95954 c 0,0 -1.95269,-2.83035 -1.99313,-4.45742 l -0.2933,-11.80075 c 0,0 0.0382,-5.47314 -1.11433,-7.85241 -0.4259,-0.87926 -2.38779,-3.73551 -3.03398,-2.57667 -2.04429,3.28993 -5.67441,10.41769 -5.67441,10.41769 0,0 1.72369,3.84273 1.18132,4.93886 0,0 -7.00339,13.08809 -10.6727,19.42277 -1.18012,2.03733 -5.0814,3.8045 -7.35284,2.55116 -2.22149,-1.22579 -2.80931,-5.4762 -1.72345,-7.414 l 10.31835,-18.41393 c 0.83255,-1.48575 4.70291,-2.46558 4.70291,-2.46558 z"
       id="path4"
       sodipodi:nodetypes="csccsccccssscccscsscsccscscssccscscccsssccscsscssasscc" />
  </g>
</svg>
